{"asset":{"version":"2.0","generator":"babylon.js glTF exporter for 3dsmax 2017 v20191127.7"},"scene":0,"scenes":[{"nodes":[0,1],"extensions":{}}],"nodes":[{"mesh":0,"translation":[-1.605473,2.85991883,3.09332752],"rotation":[0.0,0.0,0.0,1.0],"scale":[0.07031555,0.07031555,0.07031555],"name":"Plane002"},{"translation":[0.0,0.0,0.0],"rotation":[0.0,0.0,0.0,1.0],"scale":[1.0,1.0,1.0],"name":"Default light"}],"meshes":[{"primitives":[{"attributes":{"POSITION":1,"NORMAL":2,"TEXCOORD_0":3},"indices":0,"mode":4}],"name":"Plane002"}],"accessors":[{"bufferView":0,"componentType":5123,"count":696,"type":"SCALAR","name":"accessorIndices"},{"bufferView":1,"componentType":5126,"count":696,"max":[9.0,0.0,9.999999],"min":[-15.0,-36.0068779,-14.0],"type":"VEC3","name":"accessorPositions"},{"bufferView":1,"byteOffset":8352,"componentType":5126,"count":696,"type":"VEC3","name":"accessorNormals"},{"bufferView":2,"componentType":5126,"count":696,"type":"VEC2","name":"accessorUVs"}],"bufferViews":[{"buffer":0,"byteLength":1392,"name":"bufferViewScalar"},{"buffer":0,"byteOffset":1392,"byteLength":16704,"byteStride":12,"name":"bufferViewFloatVec3"},{"buffer":0,"byteOffset":18096,"byteLength":5568,"byteStride":8,"name":"bufferViewFloatVec2"}],"buffers":[{"uri":"sese-nd.bin","byteLength":23664}]}