{
  "accessors": [
    {
      "name": "restofca_1_0_positions",
      "componentType": 5126,
      "count": 282,
      "min": [
        -29.312999725341797,
        -33.56100082397461,
        2.0190000534057617
      ],
      "max": [
        28.22800064086914,
        34.60900115966797,
        9.081999778747559
      ],
      "type": "VEC3",
      "bufferView": 0,
      "byteOffset": 0
    },
    {
      "name": "restofca_1_0_normals",
      "componentType": 5126,
      "count": 282,
      "min": [
        -0.9999995231628418,
        -1,
        -1
      ],
      "max": [
        1,
        1,
        1
      ],
      "type": "VEC3",
      "bufferView": 1,
      "byteOffset": 0
    },
    {
      "name": "restofca_1_0_texcoords",
      "componentType": 5126,
      "count": 282,
      "min": [
        0.008999999612569809,
        0.004000000189989805
      ],
      "max": [
        0.9959999918937683,
        0.9980000257492065
      ],
      "type": "VEC2",
      "bufferView": 2,
      "byteOffset": 0
    },
    {
      "name": "restofca_1_0_indices",
      "componentType": 5123,
      "count": 552,
      "min": [
        0
      ],
      "max": [
        281
      ],
      "type": "SCALAR",
      "bufferView": 3,
      "byteOffset": 0
    },
    {
      "name": "sfsm_1_0_positions",
      "componentType": 5126,
      "count": 24,
      "min": [
        -18.406999588012695,
        -1.3009999990463257,
        2.0190000534057617
      ],
      "max": [
        -15.82800006866455,
        2.8299999237060547,
        9.081999778747559
      ],
      "type": "VEC3",
      "bufferView": 0,
      "byteOffset": 3384
    },
    {
      "name": "sfsm_1_0_normals",
      "componentType": 5126,
      "count": 24,
      "min": [
        -0.9981976747512817,
        -0.8181026577949524,
        -1
      ],
      "max": [
        0.8695931434631348,
        0.7781291604042053,
        1
      ],
      "type": "VEC3",
      "bufferView": 1,
      "byteOffset": 3384
    },
    {
      "name": "sfsm_1_0_texcoords",
      "componentType": 5126,
      "count": 24,
      "min": [
        0.03700000047683716,
        0.46799999475479126
      ],
      "max": [
        0.23100000619888306,
        0.8799999952316284
      ],
      "type": "VEC2",
      "bufferView": 2,
      "byteOffset": 2256
    },
    {
      "name": "sfsm_1_0_indices",
      "componentType": 5123,
      "count": 36,
      "min": [
        0
      ],
      "max": [
        23
      ],
      "type": "SCALAR",
      "bufferView": 3,
      "byteOffset": 1104
    },
    {
      "name": "siskiyou_1_0_positions",
      "componentType": 5126,
      "count": 64,
      "min": [
        -25.083999633789062,
        27.06399917602539,
        2.0190000534057617
      ],
      "max": [
        -12.555999755859375,
        34.60900115966797,
        9.081999778747559
      ],
      "type": "VEC3",
      "bufferView": 0,
      "byteOffset": 3672
    },
    {
      "name": "siskiyou_1_0_normals",
      "componentType": 5126,
      "count": 64,
      "min": [
        -1,
        -1,
        -1
      ],
      "max": [
        1,
        0.9999995231628418,
        1
      ],
      "type": "VEC3",
      "bufferView": 1,
      "byteOffset": 3672
    },
    {
      "name": "siskiyou_1_0_texcoords",
      "componentType": 5126,
      "count": 64,
      "min": [
        0.40400001406669617,
        0.02500000037252903
      ],
      "max": [
        0.5680000185966492,
        0.1850000023841858
      ],
      "type": "VEC2",
      "bufferView": 2,
      "byteOffset": 2448
    },
    {
      "name": "siskiyou_1_0_indices",
      "componentType": 5123,
      "count": 96,
      "min": [
        0
      ],
      "max": [
        63
      ],
      "type": "SCALAR",
      "bufferView": 3,
      "byteOffset": 1176
    },
    {
      "name": "modoc_1_0_positions",
      "componentType": 5126,
      "count": 24,
      "min": [
        -12.555999755859375,
        28.413000106811523,
        2.0190000534057617
      ],
      "max": [
        -4.421000003814697,
        34.59600067138672,
        9.081999778747559
      ],
      "type": "VEC3",
      "bufferView": 0,
      "byteOffset": 4440
    },
    {
      "name": "modoc_1_0_normals",
      "componentType": 5126,
      "count": 24,
      "min": [
        -1,
        -1,
        -1
      ],
      "max": [
        1,
        1,
        1
      ],
      "type": "VEC3",
      "bufferView": 1,
      "byteOffset": 4440
    },
    {
      "name": "modoc_1_0_texcoords",
      "componentType": 5126,
      "count": 24,
      "min": [
        0.5609999895095825,
        0.05900000035762787
      ],
      "max": [
        0.6629999876022339,
        0.18700000643730164
      ],
      "type": "VEC2",
      "bufferView": 2,
      "byteOffset": 2960
    },
    {
      "name": "modoc_1_0_indices",
      "componentType": 5123,
      "count": 36,
      "min": [
        0
      ],
      "max": [
        23
      ],
      "type": "SCALAR",
      "bufferView": 3,
      "byteOffset": 1368
    },
    {
      "name": "lassen_1_0_positions",
      "componentType": 5126,
      "count": 55,
      "min": [
        -11.579999923706055,
        17.511999130249023,
        2.0190000534057617
      ],
      "max": [
        -4.421000003814697,
        28.413000106811523,
        9.081999778747559
      ],
      "type": "VEC3",
      "bufferView": 0,
      "byteOffset": 4728
    },
    {
      "name": "lassen_1_0_normals",
      "componentType": 5126,
      "count": 55,
      "min": [
        -1,
        -1,
        -1
      ],
      "max": [
        1,
        1,
        1
      ],
      "type": "VEC3",
      "bufferView": 1,
      "byteOffset": 4728
    },
    {
      "name": "lassen_1_0_texcoords",
      "componentType": 5126,
      "count": 55,
      "min": [
        0.6489999890327454,
        0.1770000010728836
      ],
      "max": [
        0.8299999833106995,
        0.46799999475479126
      ],
      "type": "VEC2",
      "bufferView": 2,
      "byteOffset": 3152
    },
    {
      "name": "lassen_1_0_indices",
      "componentType": 5123,
      "count": 84,
      "min": [
        0
      ],
      "max": [
        54
      ],
      "type": "SCALAR",
      "bufferView": 3,
      "byteOffset": 1440
    },
    {
      "name": "mendocino_1_0_positions",
      "componentType": 5126,
      "count": 48,
      "min": [
        -27.118000030517578,
        10.345000267028809,
        2.0190000534057617
      ],
      "max": [
        -20.325000762939453,
        19.301000595092773,
        9.081999778747559
      ],
      "type": "VEC3",
      "bufferView": 0,
      "byteOffset": 5388
    },
    {
      "name": "mendocino_1_0_normals",
      "componentType": 5126,
      "count": 48,
      "min": [
        -0.9852631092071533,
        -0.9867962598800659,
        -1
      ],
      "max": [
        0.9912453889846802,
        1,
        1
      ],
      "type": "VEC3",
      "bufferView": 1,
      "byteOffset": 5388
    },
    {
      "name": "mendocino_1_0_texcoords",
      "componentType": 5126,
      "count": 48,
      "min": [
        0.02800000086426735,
        0.5619999766349792
      ],
      "max": [
        0.2709999978542328,
        0.777999997138977
      ],
      "type": "VEC2",
      "bufferView": 2,
      "byteOffset": 3592
    },
    {
      "name": "mendocino_1_0_indices",
      "componentType": 5123,
      "count": 84,
      "min": [
        0
      ],
      "max": [
        47
      ],
      "type": "SCALAR",
      "bufferView": 3,
      "byteOffset": 1608
    },
    {
      "name": "inyo_1_0_positions",
      "componentType": 5126,
      "count": 30,
      "min": [
        2.9830000400543213,
        -10.798999786376953,
        2.0190000534057617
      ],
      "max": [
        19.416000366210938,
        0.9769999980926514,
        9.081999778747559
      ],
      "type": "VEC3",
      "bufferView": 0,
      "byteOffset": 5964
    },
    {
      "name": "inyo_1_0_normals",
      "componentType": 5126,
      "count": 30,
      "min": [
        -0.9400390386581421,
        -1,
        -1
      ],
      "max": [
        0.697035551071167,
        0.9999874830245972,
        1
      ],
      "type": "VEC3",
      "bufferView": 1,
      "byteOffset": 5964
    },
    {
      "name": "inyo_1_0_texcoords",
      "componentType": 5126,
      "count": 30,
      "min": [
        0.5299999713897705,
        0.2809999883174896
      ],
      "max": [
        0.843999981880188,
        0.6150000095367432
      ],
      "type": "VEC2",
      "bufferView": 2,
      "byteOffset": 3976
    },
    {
      "name": "inyo_1_0_indices",
      "componentType": 5123,
      "count": 36,
      "min": [
        0
      ],
      "max": [
        29
      ],
      "type": "SCALAR",
      "bufferView": 3,
      "byteOffset": 1776
    },
    {
      "name": "sanbernie_1_0_positions",
      "componentType": 5126,
      "count": 34,
      "min": [
        8.758999824523926,
        -23.124000549316406,
        2.0190000534057617
      ],
      "max": [
        29.312999725341797,
        -10.798999786376953,
        9.081999778747559
      ],
      "type": "VEC3",
      "bufferView": 0,
      "byteOffset": 6324
    },
    {
      "name": "sanbernie_1_0_normals",
      "componentType": 5126,
      "count": 34,
      "min": [
        -0.998595654964447,
        -0.9994548559188843,
        -1
      ],
      "max": [
        0.8837879300117493,
        1,
        1
      ],
      "type": "VEC3",
      "bufferView": 1,
      "byteOffset": 6324
    },
    {
      "name": "sanbernie_1_0_texcoords",
      "componentType": 5126,
      "count": 34,
      "min": [
        0.597000002861023,
        0.6679999828338623
      ],
      "max": [
        0.9169999957084656,
        0.984000027179718
      ],
      "type": "VEC2",
      "bufferView": 2,
      "byteOffset": 4216
    },
    {
      "name": "sanbernie_1_0_indices",
      "componentType": 5123,
      "count": 48,
      "min": [
        0
      ],
      "max": [
        33
      ],
      "type": "SCALAR",
      "bufferView": 3,
      "byteOffset": 1848
    },
    {
      "name": "sandiego_1_0_positions",
      "componentType": 5126,
      "count": 26,
      "min": [
        10.303999900817871,
        -34.60900115966797,
        1.9850000143051147
      ],
      "max": [
        18.2810001373291,
        -27.72100067138672,
        9.211000442504883
      ],
      "type": "VEC3",
      "bufferView": 0,
      "byteOffset": 6732
    },
    {
      "name": "sandiego_1_0_normals",
      "componentType": 5126,
      "count": 26,
      "min": [
        -0.9789720773696899,
        -0.9874281287193298,
        -1
      ],
      "max": [
        0.9999995231628418,
        1,
        0.9999909996986389
      ],
      "type": "VEC3",
      "bufferView": 1,
      "byteOffset": 6732
    },
    {
      "name": "sandiego_1_0_texcoords",
      "componentType": 5126,
      "count": 26,
      "min": [
        0.28700000047683716,
        0.8799999952316284
      ],
      "max": [
        0.5550000071525574,
        0.9819999933242798
      ],
      "type": "VEC2",
      "bufferView": 2,
      "byteOffset": 4488
    },
    {
      "name": "sandiego_1_0_indices",
      "componentType": 5123,
      "count": 36,
      "min": [
        0
      ],
      "max": [
        25
      ],
      "type": "SCALAR",
      "bufferView": 3,
      "byteOffset": 1944
    }
  ],
  "asset": {
    "generator": "obj2gltf",
    "version": "2.0"
  },
  "buffers": [
    {
      "name": "state",
      "byteLength": 20800,
      "uri": "data:application/octet-stream;base64,"
    }
  ],
  "bufferViews": [
    {
      "name": "bufferView_0",
      "buffer": 0,
      "byteLength": 7044,
      "byteOffset": 0,
      "byteStride": 12,
      "target": 34962
    },
    {
      "name": "bufferView_1",
      "buffer": 0,
      "byteLength": 7044,
      "byteOffset": 7044,
      "byteStride": 12,
      "target": 34962
    },
    {
      "name": "bufferView_2",
      "buffer": 0,
      "byteLength": 4696,
      "byteOffset": 14088,
      "byteStride": 8,
      "target": 34962
    },
    {
      "name": "bufferView_3",
      "buffer": 0,
      "byteLength": 2016,
      "byteOffset": 18784,
      "target": 34963
    }
  ],
  "materials": [
    {
      "name": "default",
      "pbrMetallicRoughness": {
        "baseColorFactor": [
          0.5,
          0.5,
          0.5,
          1
        ],
        "metallicFactor": 0,
        "roughnessFactor": 1
      },
      "emissiveFactor": [
        0,
        0,
        0
      ],
      "alphaMode": "OPAQUE",
      "doubleSided": false
    }
  ],
  "meshes": [
    {
      "name": "restofca_1",
      "primitives": [
        {
          "attributes": {
            "POSITION": 0,
            "NORMAL": 1,
            "TEXCOORD_0": 2
          },
          "indices": 3,
          "material": 0,
          "mode": 4
        }
      ]
    },
    {
      "name": "sfsm_1",
      "primitives": [
        {
          "attributes": {
            "POSITION": 4,
            "NORMAL": 5,
            "TEXCOORD_0": 6
          },
          "indices": 7,
          "material": 0,
          "mode": 4
        }
      ]
    },
    {
      "name": "siskiyou_1",
      "primitives": [
        {
          "attributes": {
            "POSITION": 8,
            "NORMAL": 9,
            "TEXCOORD_0": 10
          },
          "indices": 11,
          "material": 0,
          "mode": 4
        }
      ]
    },
    {
      "name": "modoc_1",
      "primitives": [
        {
          "attributes": {
            "POSITION": 12,
            "NORMAL": 13,
            "TEXCOORD_0": 14
          },
          "indices": 15,
          "material": 0,
          "mode": 4
        }
      ]
    },
    {
      "name": "lassen_1",
      "primitives": [
        {
          "attributes": {
            "POSITION": 16,
            "NORMAL": 17,
            "TEXCOORD_0": 18
          },
          "indices": 19,
          "material": 0,
          "mode": 4
        }
      ]
    },
    {
      "name": "mendocino_1",
      "primitives": [
        {
          "attributes": {
            "POSITION": 20,
            "NORMAL": 21,
            "TEXCOORD_0": 22
          },
          "indices": 23,
          "material": 0,
          "mode": 4
        }
      ]
    },
    {
      "name": "inyo_1",
      "primitives": [
        {
          "attributes": {
            "POSITION": 24,
            "NORMAL": 25,
            "TEXCOORD_0": 26
          },
          "indices": 27,
          "material": 0,
          "mode": 4
        }
      ]
    },
    {
      "name": "sanbernie_1",
      "primitives": [
        {
          "attributes": {
            "POSITION": 28,
            "NORMAL": 29,
            "TEXCOORD_0": 30
          },
          "indices": 31,
          "material": 0,
          "mode": 4
        }
      ]
    },
    {
      "name": "sandiego_1",
      "primitives": [
        {
          "attributes": {
            "POSITION": 32,
            "NORMAL": 33,
            "TEXCOORD_0": 34
          },
          "indices": 35,
          "material": 0,
          "mode": 4
        }
      ]
    }
  ],
  "nodes": [
    {
      "name": "restofca",
      "mesh": 0
    },
    {
      "name": "sfsm",
      "mesh": 1
    },
    {
      "name": "siskiyou",
      "mesh": 2
    },
    {
      "name": "modoc",
      "mesh": 3
    },
    {
      "name": "lassen",
      "mesh": 4
    },
    {
      "name": "mendocino",
      "mesh": 5
    },
    {
      "name": "inyo",
      "mesh": 6
    },
    {
      "name": "sanbernie",
      "mesh": 7
    },
    {
      "name": "sandiego",
      "mesh": 8
    }
  ],
  "scene": 0,
  "scenes": [
    {
      "nodes": [
        0,
        1,
        2,
        3,
        4,
        5,
        6,
        7,
        8
      ]
    }
  ]
}
