{"asset":{"version":"2.0","generator":"babylon.js glTF exporter for 3dsmax 2017 v20191127.7"},"scene":0,"scenes":[{"nodes":[0,1,2,3,4,5,6,7,8,9],"extensions":{}}],"nodes":[{"mesh":0,"translation":[345.669,-11.147357,263.127045],"rotation":[0.0,0.0,0.0,1.0],"scale":[1.0,2.64813,1.0],"name":"restofca"},{"mesh":1,"translation":[345.669,-11.147357,263.127045],"rotation":[0.0,0.0,0.0,1.0],"scale":[1.0,2.64813,1.0],"name":"sfsm"},{"mesh":2,"translation":[345.669,-11.147357,263.127045],"rotation":[0.0,0.0,0.0,1.0],"scale":[1.0,2.64813,1.0],"name":"siskiyou"},{"mesh":3,"translation":[345.669,-11.147357,263.127045],"rotation":[0.0,0.0,0.0,1.0],"scale":[1.0,2.64813,1.0],"name":"modoc"},{"mesh":4,"translation":[345.669,-11.147357,263.127045],"rotation":[0.0,0.0,0.0,1.0],"scale":[1.0,2.64813,1.0],"name":"lassen"},{"mesh":5,"translation":[345.669,-11.147357,263.127045],"rotation":[0.0,0.0,0.0,1.0],"scale":[1.0,2.64813,1.0],"name":"mendocino"},{"mesh":6,"translation":[345.669,-11.147357,263.127045],"rotation":[0.0,0.0,0.0,1.0],"scale":[1.0,2.64813,1.0],"name":"inyo"},{"mesh":7,"translation":[345.669,-11.147357,263.127045],"rotation":[0.0,0.0,0.0,1.0],"scale":[1.0,2.64813,1.0],"name":"sanbernie"},{"mesh":8,"translation":[345.669,-11.147357,263.127045],"rotation":[0.0,0.0,0.0,1.0],"scale":[1.0,2.64813,1.0],"name":"sandiego"},{"translation":[0.0,0.0,0.0],"rotation":[0.0,0.0,0.0,1.0],"scale":[1.0,1.0,1.0],"name":"Default light"}],"meshes":[{"primitives":[{"attributes":{"POSITION":1,"NORMAL":2,"TEXCOORD_0":3},"indices":0,"mode":4,"material":0}],"name":"restofca"},{"primitives":[{"attributes":{"POSITION":5,"NORMAL":6},"indices":4,"mode":4,"material":0}],"name":"sfsm"},{"primitives":[{"attributes":{"POSITION":8,"NORMAL":9},"indices":7,"mode":4,"material":0}],"name":"siskiyou"},{"primitives":[{"attributes":{"POSITION":11,"NORMAL":12},"indices":10,"mode":4,"material":0}],"name":"modoc"},{"primitives":[{"attributes":{"POSITION":14,"NORMAL":15},"indices":13,"mode":4,"material":0}],"name":"lassen"},{"primitives":[{"attributes":{"POSITION":17,"NORMAL":18},"indices":16,"mode":4,"material":0}],"name":"mendocino"},{"primitives":[{"attributes":{"POSITION":20,"NORMAL":21},"indices":19,"mode":4,"material":0}],"name":"inyo"},{"primitives":[{"attributes":{"POSITION":23,"NORMAL":24},"indices":22,"mode":4,"material":0}],"name":"sanbernie"},{"primitives":[{"attributes":{"POSITION":26,"NORMAL":27},"indices":25,"mode":4,"material":0}],"name":"sandiego"}],"accessors":[{"bufferView":0,"componentType":5123,"count":552,"type":"SCALAR","name":"accessorIndices"},{"bufferView":1,"componentType":5126,"count":552,"max":[173.489929,15.0,206.271179],"min":[-180.160248,0.0,-212.710373],"type":"VEC3","name":"accessorPositions"},{"bufferView":1,"byteOffset":6624,"componentType":5126,"count":552,"type":"VEC3","name":"accessorNormals"},{"bufferView":2,"componentType":5126,"count":552,"type":"VEC2","name":"accessorUVs"},{"bufferView":0,"byteOffset":1104,"componentType":5123,"count":36,"type":"SCALAR","name":"accessorIndices"},{"bufferView":1,"byteOffset":13248,"componentType":5126,"count":36,"max":[-97.27829,15.0,7.99371338],"min":[-113.132187,0.0,-17.3957214],"type":"VEC3","name":"accessorPositions"},{"bufferView":1,"byteOffset":13680,"componentType":5126,"count":36,"type":"VEC3","name":"accessorNormals"},{"bufferView":0,"byteOffset":1176,"componentType":5123,"count":96,"type":"SCALAR","name":"accessorIndices"},{"bufferView":1,"byteOffset":14112,"componentType":5126,"count":96,"max":[-77.16901,15.0000029,-166.335388],"min":[-154.169,0.0,-212.710373],"type":"VEC3","name":"accessorPositions"},{"bufferView":1,"byteOffset":15264,"componentType":5126,"count":96,"type":"VEC3","name":"accessorNormals"},{"bufferView":0,"byteOffset":1368,"componentType":5123,"count":36,"type":"SCALAR","name":"accessorIndices"},{"bufferView":1,"byteOffset":16416,"componentType":5126,"count":36,"max":[-27.1690063,15.0,-174.627045],"min":[-77.16901,0.0,-212.627045],"type":"VEC3","name":"accessorPositions"},{"bufferView":1,"byteOffset":16848,"componentType":5126,"count":36,"type":"VEC3","name":"accessorNormals"},{"bufferView":0,"byteOffset":1440,"componentType":5123,"count":84,"type":"SCALAR","name":"accessorIndices"},{"bufferView":1,"byteOffset":17280,"componentType":5126,"count":84,"max":[-27.1690063,15.000001,-107.627029],"min":[-71.16901,-2.52091877E-06,-174.627045],"type":"VEC3","name":"accessorPositions"},{"bufferView":1,"byteOffset":18288,"componentType":5126,"count":84,"type":"VEC3","name":"accessorNormals"},{"bufferView":0,"byteOffset":1608,"componentType":5123,"count":84,"type":"SCALAR","name":"accessorIndices"},{"bufferView":1,"byteOffset":19296,"componentType":5126,"count":84,"max":[-124.919006,15.0,-63.583374],"min":[-166.669,0.0,-118.627045],"type":"VEC3","name":"accessorPositions"},{"bufferView":1,"byteOffset":20304,"componentType":5126,"count":84,"type":"VEC3","name":"accessorNormals"},{"bufferView":0,"byteOffset":1776,"componentType":5123,"count":36,"type":"SCALAR","name":"accessorIndices"},{"bufferView":1,"byteOffset":21312,"componentType":5126,"count":36,"max":[119.330994,15.0000029,66.3729553],"min":[18.3309631,-1.440525E-06,-6.004883],"type":"VEC3","name":"accessorPositions"},{"bufferView":1,"byteOffset":21744,"componentType":5126,"count":36,"type":"VEC3","name":"accessorNormals"},{"bufferView":0,"byteOffset":1848,"componentType":5123,"count":48,"type":"SCALAR","name":"accessorIndices"},{"bufferView":1,"byteOffset":22176,"componentType":5126,"count":48,"max":[180.160278,15.0000086,142.122955],"min":[53.8309937,0.0,66.3729553],"type":"VEC3","name":"accessorPositions"},{"bufferView":1,"byteOffset":22752,"componentType":5126,"count":48,"type":"VEC3","name":"accessorNormals"},{"bufferView":0,"byteOffset":1944,"componentType":5123,"count":36,"type":"SCALAR","name":"accessorIndices"},{"bufferView":1,"byteOffset":23328,"componentType":5126,"count":36,"max":[112.354523,15.2727642,212.710358],"min":[63.3309937,-0.0706751943,170.372955],"type":"VEC3","name":"accessorPositions"},{"bufferView":1,"byteOffset":23760,"componentType":5126,"count":36,"type":"VEC3","name":"accessorNormals"}],"bufferViews":[{"buffer":0,"byteLength":2016,"name":"bufferViewScalar"},{"buffer":0,"byteOffset":2016,"byteLength":24192,"byteStride":12,"name":"bufferViewFloatVec3"},{"buffer":0,"byteOffset":26208,"byteLength":4416,"byteStride":8,"name":"bufferViewFloatVec2"}],"buffers":[{"uri":"babylon.bin","byteLength":30624}],"materials":[{"pbrMetallicRoughness":{"baseColorFactor":[0.294117659,0.294117659,0.294117659,1.0],"metallicFactor":0.0,"roughnessFactor":0.450053632},"emissiveFactor":[0.0,0.0,0.0],"alphaMode":"OPAQUE","name":"01 - Default","extras":{"alphaMode":"Auto","dithering":false}}]}