# 3ds Max Wavefront OBJ Exporter v0.97b - (c)2007 guruware
# File Created: 07.01.2020 23:14:54

#
# object llineboxes
#

v  99.17 -288.35 -0.78
v  134.42 -288.35 -0.78
v  132.50 -286.63 0.54
v  100.02 -286.63 0.54
v  134.42 -50.48 -0.78
v  132.50 -52.20 0.54
v  34.74 -50.48 -0.78
v  35.59 -52.20 0.54
v  -173.54 -285.30 -0.78
v  -175.52 -287.02 0.54
v  -23.81 -287.02 0.54
v  -22.76 -285.30 -0.78
v  -173.54 -53.90 -0.78
v  -175.52 -52.18 0.54
v  -151.15 -53.90 -0.78
v  -152.16 -52.18 0.54
v  -177.50 -288.74 -0.78
v  -22.84 -288.74 -0.78
v  -177.50 -50.46 -0.78
v  -151.15 -50.46 -0.78
v  130.59 -284.91 -0.78
v  99.17 -284.91 -0.78
v  130.59 -53.92 -0.78
v  34.74 -53.92 -0.78
# 24 vertices

vn 0.00 -0.61 0.79
vn 0.57 0.00 0.82
vn 0.00 0.61 0.79
vn 0.56 0.00 0.83
vn -0.56 0.00 0.83
vn -0.00 0.61 0.79
vn -0.57 0.00 0.82
vn -0.84 0.00 0.54
vn 0.79 -0.02 0.61
vn 0.79 0.00 0.61
# 10 vertex normals

g llineboxes
f 1//1 2//1 3//1 
f 3//1 4//1 1//1 
f 5//2 6//2 3//2 
f 3//2 2//2 5//2 
f 7//3 8//3 6//3 
f 6//3 5//3 7//3 
f 9//3 10//3 11//3 
f 11//3 12//3 9//3 
f 13//4 14//4 10//4 
f 10//4 9//4 13//4 
f 13//1 15//1 16//1 
f 16//1 14//1 13//1 
f 10//1 17//1 18//1 
f 18//1 11//1 10//1 
f 19//5 17//5 10//5 
f 10//5 14//5 19//5 
f 20//3 19//3 14//3 
f 14//6 16//6 20//6 
f 21//3 22//3 4//3 
f 4//3 3//3 21//3 
f 23//7 21//7 3//7 
f 3//7 6//7 23//7 
f 8//1 24//1 23//1 
f 23//1 6//1 8//1 
f 22//8 1//8 4//8 
f 12//9 11//9 18//9 
f 20//10 16//10 15//10 
f 7//8 24//8 8//8 
# 28 faces

#
# object titles
#

v  -4.85 -301.14 0.11
v  -4.85 -275.70 0.11
v  85.33 -275.70 0.11
v  85.33 -301.14 0.11
v  -3.77 -301.14 9.58
v  85.33 -301.14 9.58
v  85.33 -275.70 9.58
v  -3.77 -275.70 9.58
v  -4.85 -301.14 8.50
v  -4.85 -275.70 8.50
# 10 vertices

vn 0.00 0.00 -1.00
vn 0.00 0.00 1.00
vn 0.00 -1.00 0.00
vn 1.00 0.00 -0.00
vn 0.00 1.00 0.00
vn -1.00 0.00 0.00
vn -0.71 0.00 0.71
# 7 vertex normals

g titles
f 25//11 26//11 27//11 
f 27//11 28//11 25//11 
f 29//12 30//12 31//12 
f 31//12 32//12 29//12 
f 25//13 28//13 30//13 
f 30//13 29//13 33//13 
f 25//13 30//13 33//13 
f 28//14 27//14 31//14 
f 31//14 30//14 28//14 
f 26//15 34//15 32//15 
f 27//15 26//15 32//15 
f 27//15 32//15 31//15 
f 26//16 25//16 33//16 
f 33//16 34//16 26//16 
f 32//17 34//17 33//17 
f 33//17 29//17 32//17 
# 16 faces

#
# object countypop
#

v  -29.24 -40.19 0.60
v  -31.39 -40.19 8.21
v  19.24 -40.19 8.21
v  19.24 -40.19 0.60
v  -31.39 -65.63 8.21
v  -32.76 -40.19 6.87
v  -32.76 -65.63 6.87
v  -29.24 -65.63 0.60
v  -32.76 -65.63 0.60
v  -32.76 -40.19 0.60
v  19.24 -65.63 8.21
v  19.24 -65.63 0.60
# 12 vertices

vn 0.00 1.00 0.00
vn -0.70 0.00 0.72
vn 0.00 -1.00 0.00
vn -1.00 0.00 0.00
vn 1.00 0.00 0.00
vn 0.00 0.00 1.00
# 6 vertex normals

g countypop
f 35//18 36//18 37//18 
f 37//18 38//18 35//18 
f 39//19 36//19 40//19 
f 40//19 41//19 39//19 
f 42//20 39//20 41//20 
f 41//20 43//20 42//20 
f 41//21 40//21 44//21 
f 44//21 43//21 41//21 
f 37//22 45//22 46//22 
f 46//22 38//22 37//22 
f 44//18 40//18 36//18 
f 36//18 35//18 44//18 
f 45//23 37//23 36//23 
f 36//23 39//23 45//23 
f 46//20 45//20 39//20 
f 39//20 42//20 46//20 
# 16 faces

#
# object countypct
#

v  -35.07 -65.63 13.23
v  -35.07 -40.19 13.23
v  -65.36 -40.19 13.23
v  -65.36 -65.63 13.23
v  -33.73 -65.63 0.00
v  -33.73 -65.63 11.77
v  -65.36 -65.63 0.00
v  -65.36 -40.19 0.00
v  -33.73 -40.19 11.77
v  -33.73 -40.19 0.00
# 10 vertices

vn 0.00 0.00 1.00
vn 0.00 -1.00 0.00
vn -1.00 0.00 0.00
vn 0.00 1.00 0.00
vn 1.00 0.00 0.00
vn 0.73 0.00 0.68
# 6 vertex normals

g countypct
f 47//24 48//24 49//24 
f 49//24 50//24 47//24 
f 51//25 52//25 47//25 
f 51//25 47//25 50//25 
f 53//25 51//25 50//25 
f 54//26 53//26 50//26 
f 50//26 49//26 54//26 
f 54//27 49//27 48//27 
f 54//27 48//27 55//27 
f 56//27 54//27 55//27 
f 55//28 52//28 51//28 
f 51//28 56//28 55//28 
f 52//29 55//29 48//29 
f 48//29 47//29 52//29 
# 14 faces

#
# object caret
#

v  58.12 -285.70 9.56
v  65.49 -287.33 11.02
v  72.87 -285.70 9.56
v  65.49 -293.07 9.56
# 4 vertices

vn 0.00 0.67 0.75
vn 0.24 -0.24 0.94
vn -0.24 -0.24 0.94
# 3 vertex normals

g caret
f 57//30 58//30 59//30 
f 60//31 59//31 58//31 
f 58//32 57//32 60//32 
# 3 faces

#
# object Object004
#

v  -135.53 -47.12 -0.00
v  -135.53 -57.62 -0.00
v  -119.77 -57.62 -0.00
v  -113.82 -57.62 -0.00
v  -81.43 -57.62 -0.00
v  -81.43 -47.12 -0.00
v  -119.77 -62.70 -0.00
# 7 vertices

vn 0.00 0.00 1.00
# 1 vertex normals

g Object004
f 61//33 62//33 63//33 
f 61//33 63//33 64//33 
f 61//33 64//33 65//33 
f 61//33 65//33 66//33 
f 64//33 63//33 67//33 
# 5 faces

#
# object Box001
#

v  -146.38 -108.60 0.00
v  -146.38 -99.60 0.00
v  86.13 -99.60 0.00
v  86.13 -108.60 0.00
v  -146.38 -108.60 5.00
v  86.13 -108.60 5.00
v  86.13 -99.60 5.00
v  -146.38 -99.60 5.00
# 8 vertices

vn 0.00 0.00 -1.00
vn 0.00 0.00 1.00
vn 0.00 -1.00 0.00
vn 1.00 0.00 0.00
vn 0.00 1.00 0.00
vn -1.00 0.00 0.00
# 6 vertex normals

g Box001
f 68//34 69//34 70//34 
f 70//34 71//34 68//34 
f 72//35 73//35 74//35 
f 74//35 75//35 72//35 
f 68//36 71//36 73//36 
f 73//36 72//36 68//36 
f 71//37 70//37 74//37 
f 74//37 73//37 71//37 
f 70//38 69//38 75//38 
f 75//38 74//38 70//38 
f 69//39 68//39 72//39 
f 72//39 75//39 69//39 
# 12 faces

#
# object Box002
#

v  -146.38 -149.06 0.00
v  -146.38 -140.06 0.00
v  11.73 -140.06 0.00
v  11.73 -149.06 0.00
v  -146.38 -149.06 5.00
v  11.73 -149.06 5.00
v  11.73 -140.06 5.00
v  -146.38 -140.06 5.00
# 8 vertices

vn 0.00 0.00 -1.00
vn 0.00 0.00 1.00
vn 0.00 -1.00 0.00
vn 1.00 0.00 0.00
vn 0.00 1.00 0.00
vn -1.00 0.00 0.00
# 6 vertex normals

g Box002
f 76//40 77//40 78//40 
f 78//40 79//40 76//40 
f 80//41 81//41 82//41 
f 82//41 83//41 80//41 
f 76//42 79//42 81//42 
f 81//42 80//42 76//42 
f 79//43 78//43 82//43 
f 82//43 81//43 79//43 
f 78//44 77//44 83//44 
f 83//44 82//44 78//44 
f 77//45 76//45 80//45 
f 80//45 83//45 77//45 
# 12 faces

#
# object Box003
#

v  -146.38 -191.65 0.00
v  -146.38 -182.65 0.00
v  14.05 -182.65 0.00
v  14.05 -191.65 0.00
v  -146.38 -191.65 5.00
v  14.05 -191.65 5.00
v  14.05 -182.65 5.00
v  -146.38 -182.65 5.00
# 8 vertices

vn 0.00 0.00 -1.00
vn 0.00 0.00 1.00
vn 0.00 -1.00 0.00
vn 1.00 0.00 0.00
vn 0.00 1.00 0.00
vn -1.00 0.00 0.00
# 6 vertex normals

g Box003
f 84//46 85//46 86//46 
f 86//46 87//46 84//46 
f 88//47 89//47 90//47 
f 90//47 91//47 88//47 
f 84//48 87//48 89//48 
f 89//48 88//48 84//48 
f 87//49 86//49 90//49 
f 90//49 89//49 87//49 
f 86//50 85//50 91//50 
f 91//50 90//50 86//50 
f 85//51 84//51 88//51 
f 88//51 91//51 85//51 
# 12 faces

#
# object Box004
#

v  -146.38 -238.54 0.00
v  -146.38 -229.54 0.00
v  -55.70 -229.54 0.00
v  -55.70 -238.54 0.00
v  -146.38 -238.54 5.00
v  -55.70 -238.54 5.00
v  -55.70 -229.54 5.00
v  -146.38 -229.54 5.00
# 8 vertices

vn 0.00 0.00 -1.00
vn 0.00 0.00 1.00
vn 0.00 -1.00 0.00
vn 1.00 0.00 0.00
vn 0.00 1.00 0.00
vn -1.00 0.00 0.00
# 6 vertex normals

g Box004
f 92//52 93//52 94//52 
f 94//52 95//52 92//52 
f 96//53 97//53 98//53 
f 98//53 99//53 96//53 
f 92//54 95//54 97//54 
f 97//54 96//54 92//54 
f 95//55 94//55 98//55 
f 98//55 97//55 95//55 
f 94//56 93//56 99//56 
f 99//56 98//56 94//56 
f 93//57 92//57 96//57 
f 96//57 99//57 93//57 
# 12 faces

