# 3ds Max Wavefront OBJ Exporter v0.97b - (c)2007 guruware
# File Created: 07.01.2020 23:37:16

#
# object blurb1
#

v  467.86 -136.60 -0.00
v  467.86 -126.10 -0.00
v  441.27 -126.10 -0.00
v  441.27 -136.60 -0.00
v  518.88 -136.60 -0.00
v  518.88 -126.10 -0.00
v  467.86 -149.92 -0.00
v  518.88 -149.92 -0.00
# 8 vertices

vn 0.00 0.00 1.00
# 1 vertex normals

g blurb1
f 1//1 2//1 3//1 
f 3//1 4//1 1//1 
f 5//1 6//1 2//1 
f 2//1 1//1 5//1 
f 5//1 1//1 7//1 
f 7//1 8//1 5//1 
# 6 faces

#
# object blurb002
#

v  493.37 -207.84 -0.00
v  493.37 -221.16 -0.00
v  518.88 -221.16 -0.00
v  518.88 -207.84 -0.00
v  518.88 -197.34 -0.00
v  493.37 -197.34 -0.00
v  471.25 -207.84 -0.00
v  471.25 -221.16 -0.00
v  459.03 -207.84 -0.00
v  459.03 -197.34 -0.00
v  445.66 -197.34 -0.00
v  445.66 -207.84 -0.00
# 12 vertices

vn 0.00 0.00 1.00
# 1 vertex normals

g blurb002
f 9//2 10//2 11//2 
f 11//2 12//2 9//2 
f 12//2 13//2 14//2 
f 14//2 9//2 12//2 
f 15//2 16//2 10//2 
f 10//2 9//2 15//2 
f 17//2 18//2 19//2 
f 19//2 20//2 17//2 
# 8 faces

#
# object Plane002
#

v  577.34 -183.84 0.00
v  616.77 -183.84 0.00
v  616.77 -95.92 0.00
v  577.34 -95.92 0.00
v  577.34 -244.50 0.00
v  616.77 -244.50 0.00
v  616.77 -192.50 0.00
v  577.34 -192.50 0.00
v  577.34 -278.28 0.00
v  616.77 -278.28 0.00
v  616.77 -252.98 0.00
v  577.34 -252.98 0.00
v  577.34 -300.99 0.00
v  616.77 -300.99 0.00
v  616.77 -286.55 0.00
v  577.34 -286.55 0.00
# 16 vertices

vn 0.00 0.00 1.00
# 1 vertex normals

g Plane002
f 21//3 22//3 23//3 
f 23//3 24//3 21//3 
f 25//3 26//3 27//3 
f 27//3 28//3 25//3 
f 29//3 30//3 31//3 
f 31//3 32//3 29//3 
f 33//3 34//3 35//3 
f 35//3 36//3 33//3 
# 8 faces

#
# object Object001
#

v  562.34 -56.63 -0.00
v  613.22 -56.63 -0.00
v  602.63 -46.13 -0.00
v  562.34 -46.13 -0.00
# 4 vertices

vn 0.00 0.00 1.00
# 1 vertex normals

g Object001
f 37//4 38//4 39//4 
f 39//4 40//4 37//4 
# 2 faces

#
# object Object002
#

v  610.22 -56.63 -0.00
v  651.19 -56.63 -0.00
v  651.19 -46.13 -0.00
v  610.22 -46.13 -0.00
# 4 vertices

vn 0.00 0.00 1.00
# 1 vertex normals

g Object002
f 41//5 42//5 43//5 
f 43//5 44//5 41//5 
# 2 faces

#
# object Object005
#

v  697.42 -49.90 -0.00
v  665.56 -49.90 -0.00
v  665.56 -53.73 -0.00
v  692.99 -53.73 -0.00
v  697.42 -362.09 -0.00
v  692.99 -358.34 -0.00
v  578.13 -362.09 -0.00
v  574.65 -358.34 -0.00
v  380.24 -50.31 -0.00
v  380.24 -183.09 -0.00
v  383.77 -185.83 -0.00
v  383.77 -53.95 -0.00
v  545.24 -50.31 -0.00
v  545.24 -53.95 -0.00
# 14 vertices

vn 0.00 0.00 1.00
# 1 vertex normals

g Object005
f 45//6 46//6 47//6 
f 47//6 48//6 45//6 
f 49//6 45//6 48//6 
f 48//6 50//6 49//6 
f 51//6 49//6 50//6 
f 50//6 52//6 51//6 
f 53//6 54//6 55//6 
f 55//6 56//6 53//6 
f 57//6 53//6 56//6 
f 56//6 58//6 57//6 
# 10 faces

