# 3ds Max Wavefront OBJ Exporter v0.97b - (c)2007 guruware
# File Created: 06.01.2020 17:47:39

#
# object llineboxes
#

v  11.13 -8.28 0.22
v  9.16 -8.28 0.22
v  9.16 -8.43 0.22
v  11.25 -8.43 0.22
v  11.13 9.27 0.22
v  11.25 9.42 0.22
v  3.81 9.27 0.22
v  3.81 9.42 0.22
v  -10.62 -8.46 0.22
v  0.26 -8.46 0.22
v  0.26 -8.31 0.22
v  -10.50 -8.31 0.22
v  -10.62 9.10 0.22
v  -10.50 8.95 0.22
v  -8.49 9.10 0.22
v  -8.49 8.95 0.22
# 16 vertices

vn 0.00 0.00 1.00
# 1 vertex normals

g llineboxes
f 1//1 2//1 3//1 
f 3//1 4//1 1//1 
f 5//1 1//1 4//1 
f 4//1 6//1 5//1 
f 7//1 5//1 6//1 
f 6//1 8//1 7//1 
f 9//1 10//1 11//1 
f 11//1 12//1 9//1 
f 13//1 9//1 12//1 
f 12//1 14//1 13//1 
f 15//1 13//1 14//1 
f 14//1 16//1 15//1 
# 12 faces

#
# object titles
#

v  1.54 -9.33 0.00
v  1.54 -7.43 0.00
v  7.91 -7.43 0.00
v  7.91 -9.33 0.00
v  1.54 -9.33 0.71
v  7.91 -9.33 0.71
v  7.91 -7.43 0.71
v  1.54 -7.43 0.71
v  -7.61 8.71 0.72
v  -4.35 8.71 0.72
v  -4.35 9.50 0.72
v  -7.61 9.50 0.72
# 12 vertices

vn 0.00 0.00 -1.00
vn 0.00 0.00 1.00
vn 0.00 -1.00 0.00
vn 1.00 0.00 -0.00
vn 0.00 1.00 0.00
vn -1.00 0.00 -0.00
# 6 vertex normals

g titles
f 17//2 18//2 19//2 
f 19//2 20//2 17//2 
f 21//3 22//3 23//3 
f 23//3 24//3 21//3 
f 17//4 20//4 22//4 
f 22//4 21//4 17//4 
f 20//5 19//5 23//5 
f 23//5 22//5 20//5 
f 19//6 18//6 24//6 
f 24//6 23//6 19//6 
f 18//7 17//7 21//7 
f 21//7 24//7 18//7 
f 25//3 26//3 27//3 
f 27//3 28//3 25//3 
# 14 faces

#
# object countypop
#

v  -1.33 10.24 0.00
v  -1.33 10.24 0.31
v  2.78 10.24 0.31
v  2.78 10.24 0.00
v  2.78 8.33 0.31
v  -1.33 8.33 0.31
v  2.78 8.33 0.00
v  -1.33 8.33 0.00
# 8 vertices

vn 0.00 1.00 0.00
vn 0.00 0.00 1.00
vn 0.00 -1.00 0.00
vn -1.00 0.00 0.00
vn 1.00 0.00 0.00
# 5 vertex normals

g countypop
f 29//8 30//8 31//8 
f 31//8 32//8 29//8 
f 33//9 31//9 30//9 
f 30//9 34//9 33//9 
f 35//10 33//10 34//10 
f 34//10 36//10 35//10 
f 34//11 30//11 29//11 
f 29//11 36//11 34//11 
f 31//12 33//12 35//12 
f 35//12 32//12 31//12 
# 10 faces

#
# object countypct
#

v  -1.33 8.33 0.76
v  -1.33 10.24 0.76
v  -3.33 10.24 0.76
v  -3.33 8.33 0.76
v  -1.33 8.33 0.00
v  -3.33 8.33 0.00
v  -3.33 10.24 0.00
v  -1.33 10.24 0.00
# 8 vertices

vn 0.00 0.00 1.00
vn 0.00 -1.00 0.00
vn -1.00 0.00 0.00
vn 0.00 1.00 0.00
vn 1.00 0.00 0.00
# 5 vertex normals

g countypct
f 37//13 38//13 39//13 
f 39//13 40//13 37//13 
f 41//14 37//14 40//14 
f 40//14 42//14 41//14 
f 43//15 42//15 40//15 
f 40//15 39//15 43//15 
f 43//16 39//16 38//16 
f 38//16 44//16 43//16 
f 38//17 37//17 41//17 
f 41//17 44//17 38//17 
# 10 faces

#
# object bar1
#

v  -7.40 4.61 0.72
v  9.30 4.61 0.72
v  9.30 5.40 0.72
v  -7.40 5.40 0.72
# 4 vertices

vn 0.00 0.00 1.00
# 1 vertex normals

g bar1
f 45//18 46//18 47//18 
f 47//18 48//18 45//18 
# 2 faces

#
# object bar2
#

v  -7.40 1.35 0.72
v  3.10 1.35 0.72
v  3.10 2.14 0.72
v  -7.40 2.14 0.72
# 4 vertices

vn 0.00 0.00 1.00
# 1 vertex normals

g bar2
f 49//19 50//19 51//19 
f 51//19 52//19 49//19 
# 2 faces

#
# object bar3
#

v  -7.40 -1.95 0.72
v  1.87 -1.95 0.72
v  1.87 -1.17 0.72
v  -7.40 -1.17 0.72
# 4 vertices

vn 0.00 0.00 1.00
# 1 vertex normals

g bar3
f 53//20 54//20 55//20 
f 55//20 56//20 53//20 
# 2 faces

#
# object bar4
#

v  -7.40 -5.05 0.72
v  -5.15 -5.05 0.72
v  -5.15 -4.27 0.72
v  -7.40 -4.27 0.72
# 4 vertices

vn 0.00 0.00 1.00
# 1 vertex normals

g bar4
f 57//21 58//21 59//21 
f 59//21 60//21 57//21 
# 2 faces

#
# object caret
#

v  6.08 -8.17 0.78
v  6.52 -8.73 0.78
v  6.97 -8.17 0.78
# 3 vertices

vn 0.00 0.00 1.00
# 1 vertex normals

g caret
f 61//22 62//22 63//22 
# 1 faces

