# 3ds Max Wavefront OBJ Exporter v0.97b - (c)2007 guruware
# File Created: 17.01.2020 04:01:57

#
# object llineboxes
#

v  99.174 -288.351 -0.778
v  134.421 -288.351 -0.778
v  132.503 -286.632 0.543
v  100.017 -286.632 0.543
v  134.421 -50.476 -0.778
v  132.503 -52.196 0.543
v  34.745 -50.476 -0.778
v  35.586 -52.196 0.543
v  -173.542 -285.299 -0.778
v  -175.519 -287.020 0.543
v  -23.814 -287.020 0.543
v  -22.764 -285.299 -0.778
v  -173.542 -53.901 -0.778
v  -175.519 -52.180 0.543
v  -151.146 -53.901 -0.778
v  -152.162 -52.180 0.543
v  -177.497 -288.742 -0.778
v  -22.840 -288.742 -0.778
v  -177.497 -50.460 -0.778
v  -151.155 -50.460 -0.778
v  130.586 -284.913 -0.778
v  99.174 -284.913 -0.778
v  130.586 -53.916 -0.778
v  34.742 -53.916 -0.778
# 24 vertices

vn 0.000 -0.609 0.793
vn 0.567 0.000 0.823
vn 0.000 0.609 0.793
vn 0.556 0.000 0.831
vn -0.556 0.000 0.831
vn -0.000 0.609 0.793
vn -0.567 0.000 0.823
vn -0.843 0.000 0.538
vn 0.794 -0.018 0.608
vn 0.794 0.002 0.608
vn -0.843 0.001 0.538
# 11 vertex normals

g llineboxes
f 1//1 2//1 3//1 
f 3//1 4//1 1//1 
f 5//2 6//2 3//2 
f 3//2 2//2 5//2 
f 7//3 8//3 6//3 
f 6//3 5//3 7//3 
f 9//3 10//3 11//3 
f 11//3 12//3 9//3 
f 13//4 14//4 10//4 
f 10//4 9//4 13//4 
f 13//1 15//1 16//1 
f 16//1 14//1 13//1 
f 10//1 17//1 18//1 
f 18//1 11//1 10//1 
f 19//5 17//5 10//5 
f 10//5 14//5 19//5 
f 20//3 19//3 14//3 
f 14//6 16//6 20//6 
f 21//3 22//3 4//3 
f 4//3 3//3 21//3 
f 23//7 21//7 3//7 
f 3//7 6//7 23//7 
f 8//1 24//1 23//1 
f 23//1 6//1 8//1 
f 22//8 1//8 4//8 
f 12//9 11//9 18//9 
f 20//10 16//10 15//10 
f 7//11 24//11 8//11 
# 28 faces

#
# object titles
#

v  -4.853 -301.138 0.107
v  -4.853 -275.701 0.107
v  85.331 -275.701 0.107
v  85.331 -301.138 0.107
v  -3.770 -301.138 9.585
v  85.331 -301.138 9.585
v  85.331 -275.701 9.585
v  -3.770 -275.701 9.585
v  -4.853 -301.138 8.501
v  -4.853 -275.701 8.501
# 10 vertices

vn 0.000 0.000 -1.000
vn 0.000 0.000 1.000
vn 0.000 -1.000 0.000
vn 1.000 0.000 -0.000
vn 0.000 1.000 0.000
vn -1.000 0.000 0.000
vn -0.707 0.000 0.707
# 7 vertex normals

g titles
f 25//12 26//12 27//12 
f 27//12 28//12 25//12 
f 29//13 30//13 31//13 
f 31//13 32//13 29//13 
f 25//14 28//14 30//14 
f 30//14 29//14 33//14 
f 25//14 30//14 33//14 
f 28//15 27//15 31//15 
f 31//15 30//15 28//15 
f 26//16 34//16 32//16 
f 27//16 26//16 32//16 
f 27//16 32//16 31//16 
f 26//17 25//17 33//17 
f 33//17 34//17 26//17 
f 32//18 34//18 33//18 
f 33//18 29//18 32//18 
# 16 faces

#
# object countypop
#

v  -29.238 -40.189 0.596
v  -31.386 -40.189 8.210
v  19.238 -40.189 8.210
v  19.238 -40.189 0.596
v  -31.386 -65.626 8.210
v  -32.756 -40.189 6.874
v  -32.756 -65.626 6.874
v  -29.238 -65.626 0.596
v  -32.756 -65.626 0.596
v  -32.756 -40.189 0.596
v  19.238 -65.626 8.210
v  19.238 -65.626 0.596
# 12 vertices

vn 0.000 1.000 0.000
vn -0.698 0.000 0.716
vn 0.000 -1.000 0.000
vn -1.000 0.000 0.000
vn 1.000 0.000 0.000
vn 0.000 0.000 1.000
# 6 vertex normals

g countypop
f 35//19 36//19 37//19 
f 37//19 38//19 35//19 
f 39//20 36//20 40//20 
f 40//20 41//20 39//20 
f 42//21 39//21 41//21 
f 41//21 43//21 42//21 
f 41//22 40//22 44//22 
f 44//22 43//22 41//22 
f 37//23 45//23 46//23 
f 46//23 38//23 37//23 
f 44//19 40//19 36//19 
f 36//19 35//19 44//19 
f 45//24 37//24 36//24 
f 36//24 39//24 45//24 
f 46//21 45//21 39//21 
f 39//21 42//21 46//21 
# 16 faces

#
# object countypct
#

v  -35.072 -65.626 13.226
v  -35.072 -40.189 13.226
v  -65.365 -40.189 13.226
v  -65.365 -65.626 13.226
v  -33.726 -65.626 0.000
v  -33.726 -65.626 11.772
v  -65.365 -65.626 0.000
v  -65.365 -40.189 0.000
v  -33.726 -40.189 11.772
v  -33.726 -40.189 0.000
# 10 vertices

vn 0.000 0.000 1.000
vn 0.000 -1.000 0.000
vn -1.000 0.000 0.000
vn 0.000 1.000 0.000
vn 1.000 0.000 0.000
vn 0.734 0.000 0.679
# 6 vertex normals

g countypct
f 47//25 48//25 49//25 
f 49//25 50//25 47//25 
f 51//26 52//26 47//26 
f 51//26 47//26 50//26 
f 53//26 51//26 50//26 
f 54//27 53//27 50//27 
f 50//27 49//27 54//27 
f 54//28 49//28 48//28 
f 54//28 48//28 55//28 
f 56//28 54//28 55//28 
f 55//29 52//29 51//29 
f 51//29 56//29 55//29 
f 52//30 55//30 48//30 
f 48//30 47//30 52//30 
# 14 faces

#
# object caret
#

v  58.124 -285.696 9.560
v  65.495 -287.328 11.021
v  72.866 -285.696 9.560
v  65.495 -293.067 9.560
# 4 vertices

vn 0.000 0.667 0.745
vn 0.240 -0.240 0.941
vn -0.240 -0.240 0.941
# 3 vertex normals

g caret
f 57//31 58//31 59//31 
f 60//32 59//32 58//32 
f 58//33 57//33 60//33 
# 3 faces

#
# object Object004
#

v  -135.526 -47.119 -0.000
v  -135.526 -57.619 -0.000
v  -119.771 -57.619 -0.000
v  -113.815 -57.619 -0.000
v  -81.426 -57.619 -0.000
v  -81.426 -47.119 -0.000
v  -119.771 -62.702 -0.000
# 7 vertices

vn 0.000 0.000 1.000
# 1 vertex normals

g Object004
f 61//34 62//34 63//34 
f 61//34 63//34 64//34 
f 61//34 64//34 65//34 
f 61//34 65//34 66//34 
f 64//34 63//34 67//34 
# 5 faces

#
# object Box001
#

v  -145.124 -108.596 0.000
v  -145.124 -99.596 0.000
v  84.876 -99.596 0.000
v  84.876 -108.596 0.000
v  -145.124 -108.596 5.000
v  84.876 -108.596 5.000
v  84.876 -99.596 5.000
v  -145.124 -99.596 5.000
# 8 vertices

vn 0.000 0.000 -1.000
vn 0.000 0.000 1.000
vn 0.000 -1.000 0.000
vn 1.000 0.000 0.000
vn 0.000 1.000 0.000
vn -1.000 0.000 0.000
# 6 vertex normals

g Box001
f 68//35 69//35 70//35 
f 70//35 71//35 68//35 
f 72//36 73//36 74//36 
f 74//36 75//36 72//36 
f 68//37 71//37 73//37 
f 73//37 72//37 68//37 
f 71//38 70//38 74//38 
f 74//38 73//38 71//38 
f 70//39 69//39 75//39 
f 75//39 74//39 70//39 
f 69//40 68//40 72//40 
f 72//40 75//40 69//40 
# 12 faces

#
# object Box002
#

v  -145.124 -149.056 0.000
v  -145.124 -140.056 0.000
v  84.876 -140.056 0.000
v  84.876 -149.056 0.000
v  -145.124 -149.056 5.000
v  84.876 -149.056 5.000
v  84.876 -140.056 5.000
v  -145.124 -140.056 5.000
# 8 vertices

vn 0.000 0.000 -1.000
vn 0.000 0.000 1.000
vn 0.000 -1.000 0.000
vn 1.000 0.000 0.000
vn 0.000 1.000 0.000
vn -1.000 0.000 0.000
# 6 vertex normals

g Box002
f 76//41 77//41 78//41 
f 78//41 79//41 76//41 
f 80//42 81//42 82//42 
f 82//42 83//42 80//42 
f 76//43 79//43 81//43 
f 81//43 80//43 76//43 
f 79//44 78//44 82//44 
f 82//44 81//44 79//44 
f 78//45 77//45 83//45 
f 83//45 82//45 78//45 
f 77//46 76//46 80//46 
f 80//46 83//46 77//46 
# 12 faces

#
# object Box003
#

v  -145.124 -191.647 0.000
v  -145.124 -182.647 0.000
v  84.876 -182.647 0.000
v  84.876 -191.647 0.000
v  -145.124 -191.647 5.000
v  84.876 -191.647 5.000
v  84.876 -182.647 5.000
v  -145.124 -182.647 5.000
# 8 vertices

vn 0.000 0.000 -1.000
vn 0.000 0.000 1.000
vn 0.000 -1.000 0.000
vn 1.000 0.000 0.000
vn 0.000 1.000 0.000
vn -1.000 0.000 0.000
# 6 vertex normals

g Box003
f 84//47 85//47 86//47 
f 86//47 87//47 84//47 
f 88//48 89//48 90//48 
f 90//48 91//48 88//48 
f 84//49 87//49 89//49 
f 89//49 88//49 84//49 
f 87//50 86//50 90//50 
f 90//50 89//50 87//50 
f 86//51 85//51 91//51 
f 91//51 90//51 86//51 
f 85//52 84//52 88//52 
f 88//52 91//52 85//52 
# 12 faces

#
# object Box004
#

v  -145.124 -238.538 0.000
v  -145.124 -229.538 0.000
v  84.876 -229.538 0.000
v  84.876 -238.538 0.000
v  -145.124 -238.538 5.000
v  84.876 -238.538 5.000
v  84.876 -229.538 5.000
v  -145.124 -229.538 5.000
# 8 vertices

vn 0.000 0.000 -1.000
vn 0.000 0.000 1.000
vn 0.000 -1.000 0.000
vn 1.000 0.000 0.000
vn 0.000 1.000 0.000
vn -1.000 0.000 0.000
# 6 vertex normals

g Box004
f 92//53 93//53 94//53 
f 94//53 95//53 92//53 
f 96//54 97//54 98//54 
f 98//54 99//54 96//54 
f 92//55 95//55 97//55 
f 97//55 96//55 92//55 
f 95//56 94//56 98//56 
f 98//56 97//56 95//56 
f 94//57 93//57 99//57 
f 99//57 98//57 94//57 
f 93//58 92//58 96//58 
f 96//58 99//58 93//58 
# 12 faces

#
# object blurb1
#

v  473.342 -136.600 -0.000
v  473.342 -126.100 -0.000
v  446.751 -126.100 -0.000
v  446.751 -136.600 -0.000
v  524.359 -136.600 -0.000
v  524.359 -126.100 -0.000
v  473.342 -149.918 -0.000
v  524.359 -149.918 -0.000
# 8 vertices

vn 0.000 0.000 1.000
# 1 vertex normals

g blurb1
f 100//59 101//59 102//59 
f 102//59 103//59 100//59 
f 104//59 105//59 101//59 
f 101//59 100//59 104//59 
f 104//59 100//59 106//59 
f 106//59 107//59 104//59 
# 6 faces

#
# object blurb2
#

v  498.851 -207.842 -0.000
v  498.851 -221.160 -0.000
v  524.359 -221.160 -0.000
v  524.359 -207.842 -0.000
v  524.359 -197.342 -0.000
v  498.851 -197.342 -0.000
v  476.728 -207.842 -0.000
v  476.728 -221.160 -0.000
v  464.509 -207.842 -0.000
v  464.509 -197.342 -0.000
v  451.145 -197.342 -0.000
v  451.145 -207.842 -0.000
# 12 vertices

vn 0.000 0.000 1.000
# 1 vertex normals

g blurb2
f 108//60 109//60 110//60 
f 110//60 111//60 108//60 
f 111//60 112//60 113//60 
f 113//60 108//60 111//60 
f 114//60 115//60 109//60 
f 109//60 108//60 114//60 
f 116//60 117//60 118//60 
f 118//60 119//60 116//60 
# 8 faces

#
# object vertbar
#

v  582.823 -183.837 0.000
v  622.247 -183.837 0.000
v  622.247 -95.919 0.000
v  582.823 -95.919 0.000
# 4 vertices

vn 0.000 0.000 1.000
# 1 vertex normals

g vertbar
f 120//61 121//61 122//61 
f 122//61 123//61 120//61 
# 2 faces

#
# object title
#

v  556.628 -55.639 7.685
v  597.596 -55.639 7.685
v  597.596 -45.139 7.685
v  556.628 -45.139 7.685
v  611.280 -55.639 7.685
v  652.249 -55.639 7.685
v  652.249 -45.139 7.685
v  611.280 -45.139 7.685
# 8 vertices

vn 0.000 0.000 1.000
# 1 vertex normals

g title
f 124//62 125//62 126//62 
f 126//62 127//62 124//62 
f 128//62 129//62 130//62 
f 130//62 131//62 128//62 
# 4 faces

#
# object rbox1
#

v  696.795 -49.897 3.000
v  664.931 -49.897 3.000
v  664.931 -51.897 3.000
v  694.795 -51.897 3.000
v  696.795 -362.087 3.000
v  694.795 -360.087 3.000
v  575.455 -362.087 3.000
v  575.455 -360.087 3.000
# 8 vertices

vn 0.000 0.000 1.000
# 1 vertex normals

g rbox1
f 132//63 133//63 134//63 
f 134//63 135//63 132//63 
f 136//63 132//63 135//63 
f 135//63 137//63 136//63 
f 138//63 136//63 137//63 
f 137//63 139//63 138//63 
# 6 faces

#
# object rbox2
#

v  379.612 -50.312 3.000
v  379.612 -189.270 3.000
v  381.612 -189.270 3.000
v  381.612 -52.312 3.000
v  544.613 -50.312 3.000
v  544.613 -52.312 3.000
# 6 vertices

vn 0.000 0.000 1.000
# 1 vertex normals

g rbox2
f 140//64 141//64 142//64 
f 142//64 143//64 140//64 
f 144//64 140//64 143//64 
f 143//64 145//64 144//64 
# 4 faces

#
# object vertbar2
#

v  582.823 -244.496 0.000
v  622.247 -244.496 0.000
v  622.247 -192.500 0.000
v  582.823 -192.500 0.000
# 4 vertices

vn 0.000 0.000 1.000
# 1 vertex normals

g vertbar2
f 146//65 147//65 148//65 
f 148//65 149//65 146//65 
# 2 faces

#
# object vertbar3
#

v  582.823 -278.278 0.000
v  622.247 -278.278 0.000
v  622.247 -252.977 0.000
v  582.823 -252.977 0.000
# 4 vertices

vn 0.000 0.000 1.000
# 1 vertex normals

g vertbar3
f 150//66 151//66 152//66 
f 152//66 153//66 150//66 
# 2 faces

#
# object vertbar4
#

v  582.823 -300.994 0.000
v  622.247 -300.994 0.000
v  622.247 -286.545 0.000
v  582.823 -286.545 0.000
# 4 vertices

vn 0.000 0.000 1.000
# 1 vertex normals

g vertbar4
f 154//67 155//67 156//67 
f 156//67 157//67 154//67 
# 2 faces

#
# object llineboxesueao
#

v  -151.310 -333.146 -0.478
v  -177.515 -333.146 -0.478
v  -175.716 -334.862 0.778
v  -152.045 -334.862 0.778
v  -177.515 -448.331 -0.478
v  -175.716 -445.840 0.778
v  134.845 -448.331 -0.478
v  132.740 -445.840 0.778
v  134.845 -332.186 -0.478
v  132.740 -333.922 0.778
v  -33.644 -332.186 -0.478
v  -32.802 -333.922 0.778
v  -173.917 -336.578 -0.478
v  -151.297 -336.578 -0.478
v  -173.917 -443.348 -0.478
v  130.634 -443.348 -0.478
v  130.634 -335.657 -0.478
v  -33.647 -335.657 -0.478
# 18 vertices

vn 0.000 0.591 0.807
vn -0.572 0.000 0.820
vn 0.000 -0.450 0.893
vn 0.512 0.000 0.859
vn -0.000 0.586 0.810
vn 0.000 0.586 0.810
vn 0.000 -0.591 0.807
vn -0.000 -0.591 0.807
vn 0.572 0.000 0.820
vn 0.000 0.450 0.893
vn -0.512 0.000 0.859
vn 0.000 -0.586 0.810
vn 0.861 0.003 0.508
vn -0.830 0.001 0.557
# 14 vertex normals

g llineboxesueao
f 158//68 159//68 160//68 
f 160//68 161//68 158//68 
f 159//69 162//69 163//69 
f 163//69 160//69 159//69 
f 164//70 165//70 163//70 
f 163//70 162//70 164//70 
f 166//71 167//71 165//71 
f 165//71 164//71 166//71 
f 168//72 169//72 167//72 
f 167//73 166//73 168//73 
f 170//74 171//74 161//74 
f 161//75 160//75 170//75 
f 172//76 170//76 160//76 
f 160//76 163//76 172//76 
f 173//77 172//77 163//77 
f 163//77 165//77 173//77 
f 167//78 174//78 173//78 
f 173//78 165//78 167//78 
f 169//79 175//79 174//79 
f 174//79 167//79 169//79 
f 158//80 161//80 171//80 
f 168//81 175//81 169//81 
# 22 faces

#
# object Object003
#

v  -73.314 -339.133 -0.000
v  -46.850 -339.133 -0.000
v  -46.850 -328.633 -0.000
v  -73.314 -328.633 -0.000
v  -134.953 -339.133 -0.000
v  -80.090 -339.133 -0.000
v  -80.090 -328.633 -0.000
v  -134.953 -328.633 -0.000
# 8 vertices

vn 0.000 0.000 1.000
# 1 vertex normals

g Object003
f 176//82 177//82 178//82 
f 178//82 179//82 176//82 
f 180//82 181//82 182//82 
f 182//82 183//82 180//82 
# 4 faces

#
# object Box005
#

v  -106.849 -366.056 0.000
v  -106.849 -357.056 0.000
v  63.151 -357.056 0.000
v  63.151 -366.056 0.000
v  -106.849 -366.056 5.000
v  63.151 -366.056 5.000
v  63.151 -357.056 5.000
v  -106.849 -357.056 5.000
# 8 vertices

vn 0.000 0.000 -1.000
vn 0.000 0.000 1.000
vn 0.000 -1.000 0.000
vn 1.000 0.000 0.000
vn 0.000 1.000 0.000
vn -1.000 0.000 0.000
# 6 vertex normals

g Box005
f 184//83 185//83 186//83 
f 186//83 187//83 184//83 
f 188//84 189//84 190//84 
f 190//84 191//84 188//84 
f 184//85 187//85 189//85 
f 189//85 188//85 184//85 
f 187//86 186//86 190//86 
f 190//86 189//86 187//86 
f 186//87 185//87 191//87 
f 191//87 190//87 186//87 
f 185//88 184//88 188//88 
f 188//88 191//88 185//88 
# 12 faces

#
# object Box006
#

v  -106.849 -395.223 0.000
v  -106.849 -386.223 0.000
v  63.151 -386.223 0.000
v  63.151 -395.223 0.000
v  -106.849 -395.223 5.000
v  63.151 -395.223 5.000
v  63.151 -386.223 5.000
v  -106.849 -386.223 5.000
# 8 vertices

vn 0.000 0.000 -1.000
vn 0.000 0.000 1.000
vn 0.000 -1.000 0.000
vn 1.000 0.000 0.000
vn 0.000 1.000 0.000
vn -1.000 0.000 0.000
# 6 vertex normals

g Box006
f 192//89 193//89 194//89 
f 194//89 195//89 192//89 
f 196//90 197//90 198//90 
f 198//90 199//90 196//90 
f 192//91 195//91 197//91 
f 197//91 196//91 192//91 
f 195//92 194//92 198//92 
f 198//92 197//92 195//92 
f 194//93 193//93 199//93 
f 199//93 198//93 194//93 
f 193//94 192//94 196//94 
f 196//94 199//94 193//94 
# 12 faces

#
# object Box007
#

v  -106.849 -425.210 0.000
v  -106.849 -416.210 0.000
v  63.151 -416.210 0.000
v  63.151 -425.210 0.000
v  -106.849 -425.210 5.000
v  63.151 -425.210 5.000
v  63.151 -416.210 5.000
v  -106.849 -416.210 5.000
# 8 vertices

vn 0.000 0.000 -1.000
vn 0.000 0.000 1.000
vn 0.000 -1.000 0.000
vn 1.000 0.000 0.000
vn 0.000 1.000 0.000
vn -1.000 0.000 0.000
# 6 vertex normals

g Box007
f 200//95 201//95 202//95 
f 202//95 203//95 200//95 
f 204//96 205//96 206//96 
f 206//96 207//96 204//96 
f 200//97 203//97 205//97 
f 205//97 204//97 200//97 
f 203//98 202//98 206//98 
f 206//98 205//98 203//98 
f 202//99 201//99 207//99 
f 207//99 206//99 202//99 
f 201//100 200//100 204//100 
f 204//100 207//100 201//100 
# 12 faces

#
# object Object005
#

v  -149.510 -366.518 -0.000
v  -123.580 -366.518 -0.000
v  -123.580 -356.018 -0.000
v  -149.510 -356.018 -0.000
v  -149.510 -396.123 -0.000
v  -130.606 -396.123 -0.000
v  -130.606 -385.623 -0.000
v  -149.510 -385.623 -0.000
v  -134.684 -426.095 -0.000
v  -123.580 -426.095 -0.000
v  -123.580 -415.595 -0.000
v  -134.684 -415.595 -0.000
# 12 vertices

vn 0.000 0.000 1.000
# 1 vertex normals

g Object005
f 208//101 209//101 210//101 
f 210//101 211//101 208//101 
f 212//101 213//101 214//101 
f 214//101 215//101 212//101 
f 216//101 217//101 218//101 
f 218//101 219//101 216//101 
# 6 faces

