{"accessors":[{"bufferView":0,"componentType":5123,"count":552,"max":[319],"min":[0],"type":"SCALAR"},{"bufferView":1,"componentType":5126,"count":320,"max":[173.48992919921875,15.0,206.27117919921875],"min":[-180.16024780273438,0.0,-212.7103729248047],"type":"VEC3"},{"bufferView":2,"componentType":5126,"count":320,"max":[1.0,1.0,1.0],"min":[-0.9999997615814209,-1.0,-1.0],"type":"VEC3"},{"bufferView":3,"componentType":5126,"count":320,"max":[0.9212709665298462,0.9979926943778992],"min":[0.08338072896003723,0.008157610893249512],"type":"VEC2"},{"bufferView":4,"componentType":5121,"count":36,"max":[29],"min":[0],"type":"SCALAR"},{"bufferView":5,"componentType":5126,"count":30,"max":[-97.27828979492188,15.0,7.99371337890625],"min":[-113.13218688964844,0.0,-17.395721435546875],"type":"VEC3"},{"bufferView":6,"componentType":5126,"count":30,"max":[0.8697015643119812,1.0,0.8180631995201111],"min":[-0.9981688857078552,-1.0,-0.7779555320739746],"type":"VEC3"},{"bufferView":7,"componentType":5121,"count":96,"max":[65],"min":[0],"type":"SCALAR"},{"bufferView":8,"componentType":5126,"count":66,"max":[-77.16900634765625,15.00000286102295,-166.33538818359375],"min":[-154.16900634765625,0.0,-212.7103729248047],"type":"VEC3"},{"bufferView":9,"componentType":5126,"count":66,"max":[1.0,1.0,1.0],"min":[-1.0,-1.0,-0.9999994039535522],"type":"VEC3"},{"bufferView":10,"componentType":5121,"count":36,"max":[23],"min":[0],"type":"SCALAR"},{"bufferView":11,"componentType":5126,"count":24,"max":[-27.16900634765625,15.0,-174.62704467773438],"min":[-77.16900634765625,0.0,-212.62704467773438],"type":"VEC3"},{"bufferView":12,"componentType":5126,"count":24,"max":[1.0,1.0,1.0],"min":[-1.0,-1.0,-1.0],"type":"VEC3"},{"bufferView":13,"componentType":5121,"count":84,"max":[61],"min":[0],"type":"SCALAR"},{"bufferView":14,"componentType":5126,"count":62,"max":[-27.16900634765625,15.000000953674316,-107.62702941894531],"min":[-71.16900634765625,-2.520918769732816e-06,-174.62704467773438],"type":"VEC3"},{"bufferView":15,"componentType":5126,"count":62,"max":[1.0,1.0,1.0],"min":[-1.0,-1.0,-1.0],"type":"VEC3"},{"bufferView":16,"componentType":5121,"count":84,"max":[57],"min":[0],"type":"SCALAR"},{"bufferView":17,"componentType":5126,"count":58,"max":[-124.91900634765625,15.0,-63.5833740234375],"min":[-166.66900634765625,0.0,-118.62704467773438],"type":"VEC3"},{"bufferView":18,"componentType":5126,"count":58,"max":[0.991227924823761,1.0,0.9868398308753967],"min":[-0.9852036237716675,-1.0,-1.0],"type":"VEC3"},{"bufferView":19,"componentType":5121,"count":36,"max":[31],"min":[0],"type":"SCALAR"},{"bufferView":20,"componentType":5126,"count":32,"max":[119.33099365234375,15.00000286102295,66.37295532226562],"min":[18.330963134765625,-1.440525011275895e-06,-6.0048828125],"type":"VEC3"},{"bufferView":21,"componentType":5126,"count":32,"max":[0.6966615319252014,1.0,1.0],"min":[-0.9398730397224426,-1.0,-0.999988317489624],"type":"VEC3"},{"bufferView":22,"componentType":5121,"count":48,"max":[37],"min":[0],"type":"SCALAR"},{"bufferView":23,"componentType":5126,"count":38,"max":[180.1602783203125,15.000008583068848,142.12295532226562],"min":[53.83099365234375,0.0,66.37295532226562],"type":"VEC3"},{"bufferView":24,"componentType":5126,"count":38,"max":[0.8838619589805603,1.0,0.9994704723358154],"min":[-0.9986087083816528,-1.0,-1.0],"type":"VEC3"},{"bufferView":25,"componentType":5121,"count":36,"max":[29],"min":[0],"type":"SCALAR"},{"bufferView":26,"componentType":5126,"count":30,"max":[112.35452270507812,15.272764205932617,212.71035766601562],"min":[63.33099365234375,-0.07067519426345825,170.37295532226562],"type":"VEC3"},{"bufferView":27,"componentType":5126,"count":30,"max":[0.9999997615814209,0.9999890923500061,0.9874266386032104],"min":[-0.9790670275688171,-1.0,-1.0],"type":"VEC3"}],"asset":{"generator":"Soft8Soft Verge3D for 3ds Max plug-in","version":"2.0"},"bufferViews":[{"buffer":0,"byteLength":1104,"byteOffset":0,"target":34963},{"buffer":0,"byteLength":3840,"byteOffset":1104,"target":34962},{"buffer":0,"byteLength":3840,"byteOffset":4944,"target":34962},{"buffer":0,"byteLength":2560,"byteOffset":8784,"target":34962},{"buffer":0,"byteLength":36,"byteOffset":11344,"target":34963},{"buffer":0,"byteLength":360,"byteOffset":11380,"target":34962},{"buffer":0,"byteLength":360,"byteOffset":11740,"target":34962},{"buffer":0,"byteLength":96,"byteOffset":12100,"target":34963},{"buffer":0,"byteLength":792,"byteOffset":12196,"target":34962},{"buffer":0,"byteLength":792,"byteOffset":12988,"target":34962},{"buffer":0,"byteLength":36,"byteOffset":13780,"target":34963},{"buffer":0,"byteLength":288,"byteOffset":13816,"target":34962},{"buffer":0,"byteLength":288,"byteOffset":14104,"target":34962},{"buffer":0,"byteLength":84,"byteOffset":14392,"target":34963},{"buffer":0,"byteLength":744,"byteOffset":14476,"target":34962},{"buffer":0,"byteLength":744,"byteOffset":15220,"target":34962},{"buffer":0,"byteLength":84,"byteOffset":15964,"target":34963},{"buffer":0,"byteLength":696,"byteOffset":16048,"target":34962},{"buffer":0,"byteLength":696,"byteOffset":16744,"target":34962},{"buffer":0,"byteLength":36,"byteOffset":17440,"target":34963},{"buffer":0,"byteLength":384,"byteOffset":17476,"target":34962},{"buffer":0,"byteLength":384,"byteOffset":17860,"target":34962},{"buffer":0,"byteLength":48,"byteOffset":18244,"target":34963},{"buffer":0,"byteLength":456,"byteOffset":18292,"target":34962},{"buffer":0,"byteLength":456,"byteOffset":18748,"target":34962},{"buffer":0,"byteLength":36,"byteOffset":19204,"target":34963},{"buffer":0,"byteLength":360,"byteOffset":19240,"target":34962},{"buffer":0,"byteLength":360,"byteOffset":19600,"target":34962}],"buffers":[{"byteLength":19960,"uri":"v3dsc2.bin"}],"cameras":[{"extensions":{"S8S_v3d_camera_data":{"controls":"ORBIT","enablePan":true,"moveSpeed":1,"orbitMaxDistance":10000,"orbitMaxPolarAngle":3.141592653589793,"orbitMinDistance":0,"orbitMinPolarAngle":0,"orbitTarget":[0,0,0],"rotateSpeed":1,"viewportFitInitialAspect":1.3333333730697632,"viewportFitType":"VERTICAL"}},"name":"__DEFAULT__","perspective":{"aspectRatio":1.3333333730697632,"yfov":0.6024156988215424,"zfar":6339.158203125,"znear":339.158203125},"type":"perspective"}],"extensions":{"S8S_v3d_data":{"lights":[{"color":[1,1,1],"intensity":1,"name":"__DEFAULT__","profile":"max","type":"point"},{"color":[0.0,0.0,0.0],"intensity":1,"name":"__AMBIENT__","profile":"max","type":"ambient"}]}},"extensionsUsed":["S8S_v3d_material_data","S8S_v3d_camera_data","S8S_v3d_data","S8S_v3d_node_data","S8S_v3d_scene_data"],"materials":[{"doubleSided":false,"emissiveFactor":[0,0,0],"extensions":{"S8S_v3d_material_data":{"depthWrite":true,"nodeGraph":{"edges":[{"fromNode":1,"fromOutput":0,"toInput":0,"toNode":0},{"fromNode":1,"fromOutput":1,"toInput":1,"toNode":0}],"nodes":[{"inputs":[[1,1,1,1]],"is_active_output":true,"name":"MaxOutput","outputs":[],"type":"OUTPUT_MAX"},{"IOR":1.5,"inputFactors":[0,0,0,0,0,0,0,0,0,0,0,0],"inputs":[[0.5882353186607361,0.5882353186607361,0.5882353186607361,1.0],[0.5882353186607361,0.5882353186607361,0.5882353186607361,1.0],[0.8999999761581421,0.8999999761581421,0.8999999761581421,1.0],0.09999999403953552,0.0,[0.0,0.0,0.0,1.0],1.0,[0,0,0,0],[0,0,0],[0,0,0,0],[0,0,0,0],0],"is_active_output":false,"name":"01 - Default","outputs":[[0,0,0,0]],"selfIllumColorOn":false,"type":"MATERIAL_MAX"}]},"profile":"max","useShadeless":false}},"name":"01 - Default"},{"extensions":{"S8S_v3d_material_data":{"depthWrite":true,"nodeGraph":{"edges":[],"nodes":[{"inputs":[[0.0,0.0,0.0,1]],"is_active_output":true,"name":"World Output","outputs":[],"type":"OUTPUT_MAX"}]},"profile":"max","useShadeless":false}},"name":"Verge3D_Environment"}],"meshes":[{"name":"restofca","primitives":[{"attributes":{"NORMAL":2,"POSITION":1,"TEXCOORD_0":3},"indices":0,"material":0,"mode":4}]},{"name":"sfsm","primitives":[{"attributes":{"NORMAL":6,"POSITION":5},"indices":4,"material":0,"mode":4}]},{"name":"siskiyou","primitives":[{"attributes":{"NORMAL":9,"POSITION":8},"indices":7,"material":0,"mode":4}]},{"name":"modoc","primitives":[{"attributes":{"NORMAL":12,"POSITION":11},"indices":10,"material":0,"mode":4}]},{"name":"lassen","primitives":[{"attributes":{"NORMAL":15,"POSITION":14},"indices":13,"material":0,"mode":4}]},{"name":"mendocino","primitives":[{"attributes":{"NORMAL":18,"POSITION":17},"indices":16,"material":0,"mode":4}]},{"name":"inyo","primitives":[{"attributes":{"NORMAL":21,"POSITION":20},"indices":19,"material":0,"mode":4}]},{"name":"sanbernie","primitives":[{"attributes":{"NORMAL":24,"POSITION":23},"indices":22,"material":0,"mode":4}]},{"name":"sandiego","primitives":[{"attributes":{"NORMAL":27,"POSITION":26},"indices":25,"material":0,"mode":4}]}],"nodes":[{"extensions":{"S8S_v3d_node_data":{"frustumCulling":true,"hidden":false,"renderOrder":0,"useCastShadows":true,"useShadows":true}},"extras":{"customProps":{"babylonjs_GUID":"e58c83de-be68-4838-ba1a-1a73d6cb07db"}},"mesh":0,"name":"restofca","scale":[1.0,2.648129940032959,1.0],"translation":[345.66900634765625,-11.147356986999512,263.1270446777344]},{"extensions":{"S8S_v3d_node_data":{"frustumCulling":true,"hidden":false,"renderOrder":0,"useCastShadows":true,"useShadows":true}},"extras":{"customProps":{"babylonjs_GUID":"58b31c61-e9d2-47ec-a6b7-a6ae7915c736"}},"mesh":1,"name":"sfsm","scale":[1.0,2.648129940032959,1.0],"translation":[345.66900634765625,-11.147356986999512,263.1270446777344]},{"extensions":{"S8S_v3d_node_data":{"frustumCulling":true,"hidden":false,"renderOrder":0,"useCastShadows":true,"useShadows":true}},"extras":{"customProps":{"babylonjs_GUID":"6fadf967-173b-4b88-9d38-c59f7645b6a6"}},"mesh":2,"name":"siskiyou","scale":[1.0,2.648129940032959,1.0],"translation":[345.66900634765625,-11.147356986999512,263.1270446777344]},{"extensions":{"S8S_v3d_node_data":{"frustumCulling":true,"hidden":false,"renderOrder":0,"useCastShadows":true,"useShadows":true}},"extras":{"customProps":{"babylonjs_GUID":"9a7e17e3-e6b4-4a05-9e7f-b2c5fc6665b7"}},"mesh":3,"name":"modoc","scale":[1.0,2.648129940032959,1.0],"translation":[345.66900634765625,-11.147356986999512,263.1270446777344]},{"extensions":{"S8S_v3d_node_data":{"frustumCulling":true,"hidden":false,"renderOrder":0,"useCastShadows":true,"useShadows":true}},"extras":{"customProps":{"babylonjs_GUID":"6db198fa-204a-42bc-a029-a39de66eb019"}},"mesh":4,"name":"lassen","scale":[1.0,2.648129940032959,1.0],"translation":[345.66900634765625,-11.147356986999512,263.1270446777344]},{"extensions":{"S8S_v3d_node_data":{"frustumCulling":true,"hidden":false,"renderOrder":0,"useCastShadows":true,"useShadows":true}},"extras":{"customProps":{"babylonjs_GUID":"d2639172-8e99-45e0-a6d0-01cf603417d0"}},"mesh":5,"name":"mendocino","scale":[1.0,2.648129940032959,1.0],"translation":[345.66900634765625,-11.147356986999512,263.1270446777344]},{"extensions":{"S8S_v3d_node_data":{"frustumCulling":true,"hidden":false,"renderOrder":0,"useCastShadows":true,"useShadows":true}},"extras":{"customProps":{"babylonjs_GUID":"f951540e-da3e-4141-a3b5-00a69bcfc4ef"}},"mesh":6,"name":"inyo","scale":[1.0,2.648129940032959,1.0],"translation":[345.66900634765625,-11.147356986999512,263.1270446777344]},{"extensions":{"S8S_v3d_node_data":{"frustumCulling":true,"hidden":false,"renderOrder":0,"useCastShadows":true,"useShadows":true}},"extras":{"customProps":{"babylonjs_GUID":"c47b81bc-765b-4402-b610-640610d8364d"}},"mesh":7,"name":"sanbernie","scale":[1.0,2.648129940032959,1.0],"translation":[345.66900634765625,-11.147356986999512,263.1270446777344]},{"extensions":{"S8S_v3d_node_data":{"frustumCulling":true,"hidden":false,"renderOrder":0,"useCastShadows":true,"useShadows":true}},"extras":{"customProps":{"babylonjs_GUID":"9585ec15-6024-41b0-a70f-00cd93efbdca"}},"mesh":8,"name":"sandiego","scale":[1.0,2.648129940032959,1.0],"translation":[345.66900634765625,-11.147356986999512,263.1270446777344]},{"camera":0,"children":[10],"name":"__DEFAULT_CAMERA__","rotation":[-0.5483468174934387,0.13365256786346436,0.08930370956659317,0.8206568360328674],"scale":[1.0000001192092896,1.0,1.0],"translation":[613.0327758789062,3156.509521484375,1361.90673828125]},{"extensions":{"S8S_v3d_node_data":{"light":0}},"name":"__DEFAULT_LIGHT__","rotation":[3.774895063202166e-08,0.0,0.0,1.0],"scale":[1.0,1.0,1.0],"translation":[1063.5517578125,1595.3275146484375,2127.103515625]}],"scene":0,"scenes":[{"extensions":{"S8S_v3d_scene_data":{"aaMethod":"AUTO","light":1,"postprocessing":[],"shadowMap":{"renderReverseSided":false,"renderSingleSided":true,"type":"PCFPOISSON"},"worldMaterial":1}},"extras":{"animFrameRate":30},"name":"Scene","nodes":[0,1,2,3,4,5,6,7,8,9]}]}
